<svg width="163" height="48" viewBox="0 0 163 48" fill="none" xmlns="http://www.w3.org/2000/svg">
<path d="M161.556 42.3313C161.556 42.9355 161.437 43.5337 161.205 44.0918C160.974 44.6498 160.635 45.1568 160.207 45.5838C159.78 46.0108 159.272 46.3493 158.714 46.58C158.155 46.8108 157.557 46.9292 156.953 46.9286H6.30851C5.08753 46.9299 3.91604 46.4463 3.05166 45.5842C2.18729 44.722 1.70081 43.552 1.69922 42.3313V5.66967C1.70081 4.44847 2.18709 3.2778 3.0513 2.41473C3.9155 1.55166 5.08698 1.06672 6.30851 1.06641H156.951C157.556 1.06641 158.155 1.18548 158.713 1.41683C159.272 1.64818 159.779 1.98728 160.207 2.41474C160.634 2.84221 160.973 3.34968 161.205 3.90817C161.436 4.46666 161.555 5.06522 161.555 5.66967L161.556 42.3313Z" fill="white"/>
<path d="M156.953 48H6.30872C4.80462 47.9997 3.36207 47.4029 2.29761 46.3405C1.23315 45.2781 0.633721 43.8369 0.630859 42.3332L0.630859 5.67276C0.633084 4.16831 1.23212 2.72617 2.29654 1.6627C3.36097 0.599227 4.80387 0.00126981 6.30872 0L156.952 0C158.456 0.00190342 159.899 0.600064 160.963 1.6634C162.027 2.72673 162.627 4.1685 162.63 5.67276V42.3332C162.632 45.4589 160.081 48 156.953 48Z" fill="#A6A6A6"/>
<path d="M161.556 42.3313C161.556 42.9355 161.437 43.5337 161.205 44.0918C160.974 44.6498 160.635 45.1568 160.207 45.5838C159.78 46.0108 159.272 46.3493 158.714 46.58C158.155 46.8108 157.557 46.9292 156.953 46.9286H6.30851C5.08753 46.9299 3.91604 46.4463 3.05166 45.5842C2.18729 44.722 1.70081 43.552 1.69922 42.3313V5.66967C1.70081 4.44847 2.18709 3.2778 3.0513 2.41473C3.9155 1.55166 5.08698 1.06672 6.30851 1.06641H156.951C157.556 1.06641 158.155 1.18548 158.713 1.41683C159.272 1.64818 159.779 1.98728 160.207 2.41474C160.634 2.84221 160.973 3.34968 161.205 3.90817C161.436 4.46666 161.555 5.06522 161.555 5.66967L161.556 42.3313Z" fill="#151314"/>
<path d="M36.8048 23.7458C36.77 19.8772 39.9733 17.995 40.1198 17.9074C38.3056 15.2631 35.4937 14.9018 34.5055 14.873C32.1439 14.6245 29.853 16.2858 28.65 16.2858C27.4229 16.2858 25.5703 14.897 23.5736 14.9378C21.0043 14.9774 18.6006 16.4646 17.2822 18.774C14.5616 23.4829 16.5907 30.4028 19.1973 34.2091C20.5012 36.0744 22.0248 38.1546 24.0191 38.0814C25.9701 38.0021 26.6989 36.839 29.0534 36.839C31.3863 36.839 32.0706 38.0814 34.1045 38.0345C36.1985 38.0021 37.5168 36.162 38.775 34.2811C40.2819 32.1457 40.887 30.0403 40.911 29.9323C40.863 29.9155 36.8456 28.3815 36.8048 23.7458ZM32.9627 12.3691C34.0121 11.0571 34.7301 9.27224 34.5308 7.46094C33.0119 7.52816 31.1125 8.51123 30.0187 9.79438C29.051 10.9251 28.1865 12.7784 28.4099 14.5213C30.116 14.6485 31.8677 13.6606 32.9627 12.3691Z" fill="white"/>
<path d="M156.953 0H76.2637L107.868 48H156.953C158.458 47.9987 159.9 47.4011 160.965 46.3382C162.029 45.2752 162.628 43.8337 162.631 42.3296V5.67276C162.629 4.16841 162.029 2.72645 160.965 1.66305C159.901 0.599646 158.458 0.00158674 156.953 0Z" fill="url(#paint0_linear_1464_36550)"/>
<path d="M65.0635 37.8159H62.3368L60.8432 33.1238H55.6516L54.2288 37.8159H51.5742L56.719 21.8419H59.8959L65.0635 37.8159ZM60.393 31.1553L59.0423 26.9841C58.8994 26.558 58.6304 25.5546 58.2366 23.9749H58.1886C58.0301 24.6543 57.7768 25.6578 57.4298 26.9841L56.1019 31.1553H60.393ZM78.2682 31.9151C78.2682 33.874 77.7363 35.4225 76.6714 36.5592C75.7181 37.5711 74.533 38.0764 73.1198 38.0764C71.5938 38.0764 70.4964 37.5326 69.8301 36.4427V42.4864H67.2703V30.0834C67.2703 28.8531 67.2379 27.5915 67.1754 26.2976H69.4267L69.5695 28.1233H69.6176C70.4712 26.7477 71.7667 26.0599 73.5053 26.0599C74.8644 26.0599 75.999 26.5964 76.9067 27.6707C77.8132 28.7474 78.2682 30.1614 78.2682 31.9151ZM75.6604 32.0087C75.6604 30.8876 75.4083 29.9634 74.9016 29.2348C74.3481 28.4774 73.6049 28.0981 72.6732 28.0981C72.0417 28.0981 71.4678 28.3093 70.9551 28.7258C70.4412 29.1459 70.105 29.6945 69.9477 30.3739C69.8775 30.628 69.8376 30.8894 69.8289 31.1529V33.0746C69.8289 33.9113 70.0858 34.6182 70.5997 35.1968C71.1136 35.773 71.7811 36.0622 72.6024 36.0622C73.5665 36.0622 74.3169 35.6889 74.8536 34.9483C75.3915 34.2053 75.6604 33.2259 75.6604 32.0087ZM91.5198 31.9151C91.5198 33.874 90.9879 35.4225 89.9229 36.5592C88.9684 37.5711 87.7846 38.0764 86.3702 38.0764C84.8442 38.0764 83.7468 37.5326 83.0804 36.4427V42.4864H80.5206V30.0834C80.5206 28.8531 80.4882 27.5915 80.4258 26.2976H82.677L82.8199 28.1233H82.8679C83.7204 26.7477 85.0159 26.0599 86.7556 26.0599C88.1135 26.0599 89.2482 26.5964 90.1582 27.6707C91.0635 28.7474 91.5198 30.1614 91.5198 31.9151ZM88.9108 32.0087C88.9108 30.8876 88.6574 29.9634 88.1508 29.2348C87.5973 28.4774 86.8565 28.0981 85.9248 28.0981C85.2932 28.0981 84.7193 28.3093 84.2042 28.7258C83.6904 29.1459 83.3554 29.6945 83.1981 30.3739C83.12 30.6908 83.078 30.9488 83.078 31.1529V33.0746C83.078 33.9113 83.3362 34.6182 83.8476 35.1968C84.3615 35.7718 85.0291 36.0622 85.8527 36.0622C86.818 36.0622 87.5685 35.6889 88.1039 34.9483C88.6418 34.2053 88.9108 33.2259 88.9108 32.0087ZM106.336 33.3351C106.336 34.6951 105.86 35.8006 104.915 36.654C103.876 37.5855 102.424 38.0524 100.563 38.0524C98.8437 38.0524 97.4654 37.7211 96.4256 37.0573L97.0175 34.9243C98.1402 35.5893 99.3732 35.9206 100.716 35.9206C101.681 35.9206 102.431 35.7021 102.967 35.2688C103.503 34.8343 103.775 34.2533 103.775 33.5283C103.775 32.879 103.55 32.3352 103.11 31.8923C102.667 31.4506 101.934 31.0389 100.905 30.6608C98.1077 29.6177 96.7078 28.0921 96.7078 26.0851C96.7078 24.7743 97.2024 23.7012 98.1894 22.8622C99.1763 22.0244 100.485 21.6055 102.113 21.6055C103.567 21.6055 104.779 21.8587 105.74 22.3641L105.098 24.4502C104.193 23.9605 103.171 23.7156 102.028 23.7156C101.125 23.7156 100.417 23.9377 99.9099 24.3794C99.4837 24.7743 99.2676 25.2557 99.2676 25.827C99.2676 26.4572 99.5137 26.9805 100.004 27.3911C100.429 27.7692 101.204 28.1809 102.326 28.6226C103.702 29.1771 104.712 29.8229 105.36 30.5647C106.012 31.3065 106.336 32.232 106.336 33.3351ZM114.821 28.2181H111.999V33.8104C111.999 35.2328 112.496 35.9422 113.493 35.9422C113.95 35.9422 114.33 35.9038 114.63 35.8234L114.701 37.7667C114.196 37.9552 113.532 38.05 112.71 38.05C111.699 38.05 110.909 37.7415 110.339 37.1245C109.771 36.5076 109.485 35.4741 109.485 34.0193V28.2133H107.804V26.2928H109.485V24.1838L111.999 23.4252V26.2928H114.821V28.2181ZM127.526 31.9619C127.526 33.7324 127.019 35.186 126.008 36.3227C124.951 37.493 123.543 38.0764 121.789 38.0764C120.096 38.0764 118.75 37.5158 117.747 36.3959C116.743 35.2736 116.241 33.8596 116.241 32.154C116.241 30.3691 116.76 28.9071 117.794 27.7704C118.83 26.6325 120.225 26.0635 121.979 26.0635C123.67 26.0635 125.027 26.6252 126.055 27.7464C127.037 28.8339 127.526 30.2382 127.526 31.9619ZM124.873 32.0207C124.873 30.9656 124.644 30.0606 124.187 29.3032C123.65 28.3885 122.882 27.9312 121.887 27.9312C120.861 27.9312 120.075 28.3885 119.539 29.3032C119.081 30.0606 118.853 30.9812 118.853 32.0687C118.853 33.125 119.081 34.0325 119.539 34.7875C120.093 35.7021 120.865 36.1595 121.865 36.1595C122.843 36.1595 123.611 35.6925 124.165 34.7647C124.636 33.9893 124.873 33.0782 124.873 32.0207ZM135.85 28.5482C135.584 28.5001 135.314 28.4764 135.043 28.4774C134.143 28.4774 133.446 28.8159 132.957 29.4976C132.532 30.0978 132.318 30.8564 132.318 31.7723V37.8159H129.758V29.925C129.76 28.7158 129.735 27.5068 129.684 26.2988H131.913L132.007 28.5026H132.078C132.349 27.7452 132.774 27.1342 133.358 26.6769C133.892 26.2772 134.541 26.0608 135.208 26.0599C135.444 26.0599 135.658 26.0767 135.848 26.1067L135.85 28.5482ZM147.298 31.5118C147.305 31.9008 147.273 32.2896 147.205 32.6725H139.525C139.554 33.8104 139.926 34.6819 140.639 35.282C141.287 35.8174 142.123 36.0863 143.151 36.0863C144.288 36.0863 145.326 35.9062 146.259 35.5425L146.66 37.3178C145.569 37.7931 144.282 38.0296 142.797 38.0296C141.01 38.0296 139.608 37.5038 138.588 36.4548C137.569 35.4045 137.059 33.9929 137.059 32.2248C137.059 30.4891 137.533 29.0427 138.483 27.8892C139.477 26.6577 140.821 26.0419 142.511 26.0419C144.172 26.0419 145.429 26.6577 146.283 27.8892C146.959 28.8651 147.298 30.075 147.298 31.5118ZM144.857 30.848C144.875 30.0882 144.707 29.434 144.36 28.8807C143.917 28.1677 143.235 27.8124 142.322 27.8124C141.485 27.8124 140.803 28.1593 140.284 28.8555C139.858 29.4088 139.605 30.0738 139.526 30.8456L144.857 30.848Z" fill="white"/>
<path d="M54.9129 16.1951C54.2009 16.1951 53.5849 16.1603 53.0723 16.1015V8.37853C53.7893 8.26779 54.5139 8.21321 55.2394 8.21528C58.175 8.21528 59.5269 9.65928 59.5269 12.0131C59.5269 14.7283 57.9301 16.1951 54.9129 16.1951ZM55.3427 9.20556C54.9465 9.20556 54.6091 9.22956 54.3293 9.28718V15.158C54.4806 15.182 54.7712 15.1928 55.1794 15.1928C57.1028 15.1928 58.1978 14.0981 58.1978 12.0479C58.1978 10.2198 57.2073 9.20556 55.3427 9.20556ZM63.74 16.2539C62.0855 16.2539 61.0133 15.0188 61.0133 13.3419C61.0133 11.5942 62.1083 10.3483 63.8337 10.3483C65.4642 10.3483 66.5603 11.5246 66.5603 13.2495C66.5603 15.0188 65.4305 16.2539 63.74 16.2539ZM63.788 11.2677C62.8792 11.2677 62.2968 12.1176 62.2968 13.3059C62.2968 14.4714 62.8912 15.3212 63.776 15.3212C64.6609 15.3212 65.2552 14.4126 65.2552 13.2819C65.2552 12.1296 64.6729 11.2677 63.788 11.2677ZM75.995 10.4647L74.2241 16.1255H73.0703L72.3367 13.6672C72.1543 13.0659 72.0024 12.4557 71.8816 11.8391H71.8576C71.7652 12.4561 71.5899 13.0742 71.4038 13.6672L70.6233 16.1255H69.4575L67.791 10.4647H69.0841L69.7253 13.1558C69.8765 13.7968 70.0038 14.4018 70.1095 14.9731H70.1335C70.2259 14.4966 70.3772 13.9012 70.5993 13.1678L71.4038 10.4659H72.4291L73.1987 13.1102C73.3848 13.7512 73.5361 14.3802 73.6538 14.9743H73.6874C73.769 14.3922 73.8975 13.774 74.0716 13.1102L74.7596 10.4659L75.995 10.4647ZM82.5145 16.1255H81.2563V12.875C81.2563 11.8739 80.8721 11.3722 80.1145 11.3722C79.3689 11.3722 78.8562 12.0131 78.8562 12.7585V16.1255H77.5979V12.0827C77.5979 11.5822 77.5859 11.0457 77.5511 10.4635H78.6581L78.7169 11.3373H78.7517C79.0903 10.7324 79.7771 10.3483 80.5467 10.3483C81.7353 10.3483 82.5157 11.2569 82.5157 12.7357L82.5145 16.1255ZM85.9844 16.1255H84.7249V7.86719H85.9844V16.1255ZM90.5721 16.2539C88.9188 16.2539 87.8454 15.0188 87.8454 13.3419C87.8454 11.5942 88.9404 10.3483 90.6646 10.3483C92.2962 10.3483 93.3912 11.5246 93.3912 13.2495C93.3924 15.0188 92.2614 16.2539 90.5721 16.2539ZM90.6189 11.2677C89.71 11.2677 89.1277 12.1176 89.1277 13.3059C89.1277 14.4714 89.7232 15.3212 90.6057 15.3212C91.4918 15.3212 92.0849 14.4126 92.0849 13.2819C92.0861 12.1296 91.505 11.2677 90.6189 11.2677ZM98.3523 16.1255L98.2611 15.4737H98.2274C97.8432 15.9982 97.2825 16.2539 96.5717 16.2539C95.5572 16.2539 94.8368 15.5433 94.8368 14.5878C94.8368 13.1907 96.0483 12.4681 98.1458 12.4681V12.3636C98.1458 11.6182 97.7508 11.2449 96.9704 11.2449C96.4121 11.2449 95.9222 11.3854 95.4912 11.665L95.2354 10.838C95.7589 10.5115 96.4121 10.3483 97.1793 10.3483C98.6585 10.3483 99.4053 11.1285 99.4053 12.6901V14.7751C99.4053 15.3464 99.4305 15.7894 99.4869 16.1267L98.3523 16.1255ZM98.1794 13.3059C96.7819 13.3059 96.0807 13.6444 96.0807 14.4474C96.0807 15.0416 96.4421 15.332 96.9439 15.332C97.5839 15.332 98.1794 14.8435 98.1794 14.1797V13.3059ZM105.515 16.1255L105.457 15.2168H105.422C105.06 15.9034 104.453 16.2539 103.604 16.2539C102.239 16.2539 101.228 15.0536 101.228 13.3647C101.228 11.5942 102.276 10.3471 103.707 10.3471C104.465 10.3471 105.001 10.6027 105.304 11.1165H105.329V7.86719H106.589V14.5998C106.589 15.1472 106.602 15.6597 106.636 16.1255H105.515ZM105.329 12.7945C105.329 12.0023 104.805 11.3265 104.004 11.3265C103.071 11.3265 102.501 12.1536 102.501 13.3179C102.501 14.4594 103.092 15.2408 103.979 15.2408C104.77 15.2408 105.329 14.553 105.329 13.738V12.7945ZM114.574 16.2539C112.921 16.2539 111.849 15.0188 111.849 13.3419C111.849 11.5942 112.944 10.3483 114.668 10.3483C116.3 10.3483 117.395 11.5246 117.395 13.2495C117.396 15.0188 116.266 16.2539 114.574 16.2539ZM114.621 11.2677C113.713 11.2677 113.131 12.1176 113.131 13.3059C113.131 14.4714 113.725 15.3212 114.609 15.3212C115.495 15.3212 116.088 14.4126 116.088 13.2819C116.091 12.1296 115.508 11.2677 114.621 11.2677ZM124.161 16.1255H122.902V12.875C122.902 11.8739 122.518 11.3722 121.76 11.3722C121.015 11.3722 120.503 12.0131 120.503 12.7585V16.1255H119.244V12.0827C119.244 11.5822 119.232 11.0457 119.197 10.4635H120.304L120.363 11.3373H120.397C120.735 10.7324 121.423 10.3471 122.191 10.3471C123.38 10.3471 124.161 11.2557 124.161 12.7345V16.1255ZM132.627 11.4082H131.243V14.1569C131.243 14.8567 131.485 15.206 131.975 15.206C132.197 15.206 132.383 15.182 132.534 15.1472L132.568 16.1027C132.325 16.1963 131.998 16.2431 131.592 16.2431C130.601 16.2431 130.007 15.6957 130.007 14.2625V11.4082H129.181V10.4647H130.007V9.42762L131.243 9.05431V10.4635H132.627V11.4082ZM139.288 16.1255H138.031V12.899C138.031 11.8859 137.648 11.3734 136.889 11.3734C136.238 11.3734 135.63 11.8163 135.63 12.7129V16.1255H134.373V7.86719H135.63V11.2677H135.655C136.051 10.6508 136.625 10.3471 137.358 10.3471C138.556 10.3471 139.288 11.2785 139.288 12.7585V16.1255ZM146.113 13.5976H142.337C142.361 14.6695 143.07 15.2744 144.121 15.2744C144.679 15.2744 145.193 15.1808 145.647 15.0068L145.843 15.8806C145.307 16.1135 144.677 16.2299 143.943 16.2299C142.172 16.2299 141.124 15.1112 141.124 13.3767C141.124 11.641 142.198 10.3363 143.802 10.3363C145.248 10.3363 146.156 11.4082 146.156 13.0274C146.164 13.2185 146.15 13.4099 146.113 13.5976ZM144.959 12.7009C144.959 11.8271 144.518 11.2101 143.714 11.2101C142.991 11.2101 142.42 11.8391 142.338 12.7009H144.959Z" fill="white"/>
<defs>
<linearGradient id="paint0_linear_1464_36550" x1="119.446" y1="48.1274" x2="119.446" y2="-124.984" gradientUnits="userSpaceOnUse">
<stop stop-color="#1A1A1A" stop-opacity="0.1"/>
<stop offset="0.123" stop-color="#212121" stop-opacity="0.151"/>
<stop offset="0.308" stop-color="#353535" stop-opacity="0.227"/>
<stop offset="0.532" stop-color="#575757" stop-opacity="0.318"/>
<stop offset="0.783" stop-color="#858585" stop-opacity="0.421"/>
<stop offset="1" stop-color="#B3B3B3" stop-opacity="0.51"/>
</linearGradient>
</defs>
</svg>
