<svg width="148" height="48" viewBox="0 0 148 48" fill="none" xmlns="http://www.w3.org/2000/svg">
<path d="M147.37 41.5128C147.37 45.0949 144.466 48 140.885 48H7.11746C3.53563 48.0003 0.630859 45.0952 0.630859 41.5128V6.4866C0.630859 2.90477 3.53563 0 7.11746 0H140.884C144.466 0 147.37 2.90477 147.37 6.4866V41.5128H147.37Z" fill="#151314"/>
<mask id="mask0_1464_36561" style="mask-type:luminance" maskUnits="userSpaceOnUse" x="11" y="9" width="29" height="33">
<path d="M32.4306 21.128L25.814 17.3081C25.814 17.3081 13.76 10.3478 13.0514 9.93869C12.3428 9.52959 11.6367 9.77746 11.6367 10.6324V40.6558C11.6367 41.2968 12.1413 41.573 12.757 41.2179C13.3724 40.8621 25.814 33.6786 25.814 33.6786L32.4303 29.859C32.4303 29.859 38.0442 26.618 38.7903 26.1873C39.5366 25.7561 39.4648 25.1651 38.8351 24.8261C38.2057 24.4866 32.4306 21.128 32.4306 21.128Z" fill="white"/>
</mask>
<g mask="url(#mask0_1464_36561)">
<path d="M11.6367 9.24219V41.7478L28.0279 25.4951L11.6367 9.24219Z" fill="url(#paint0_linear_1464_36561)"/>
</g>
<mask id="mask1_1464_36561" style="mask-type:luminance" maskUnits="userSpaceOnUse" x="11" y="9" width="29" height="33">
<path d="M32.4306 21.128L25.814 17.3081C25.814 17.3081 13.76 10.3478 13.0514 9.93869C12.3428 9.52959 11.6367 9.77746 11.6367 10.6324V40.6558C11.6367 41.2968 12.1413 41.573 12.757 41.2179C13.3724 40.8621 25.814 33.6786 25.814 33.6786L32.4303 29.859C32.4303 29.859 38.0442 26.618 38.7903 26.1873C39.5366 25.7561 39.4648 25.1651 38.8351 24.8261C38.2057 24.4866 32.4306 21.128 32.4306 21.128Z" fill="white"/>
</mask>
<g mask="url(#mask1_1464_36561)">
<path d="M32.4303 21.1266L25.8137 17.3067L11.6367 9.12109V9.23929L28.0279 25.4922L32.4303 21.1266Z" fill="url(#paint1_linear_1464_36561)"/>
</g>
<mask id="mask2_1464_36561" style="mask-type:luminance" maskUnits="userSpaceOnUse" x="11" y="9" width="29" height="33">
<path d="M32.4306 21.128L25.814 17.3081C25.814 17.3081 13.76 10.3478 13.0514 9.93869C12.3428 9.52959 11.6367 9.77746 11.6367 10.6324V40.6558C11.6367 41.2968 12.1413 41.573 12.757 41.2179C13.3724 40.8621 25.814 33.6786 25.814 33.6786L32.4303 29.859C32.4303 29.859 38.0442 26.618 38.7903 26.1873C39.5366 25.7561 39.4648 25.1651 38.8351 24.8261C38.2057 24.4866 32.4306 21.128 32.4306 21.128Z" fill="white"/>
</mask>
<g mask="url(#mask2_1464_36561)">
<path d="M11.6367 41.7448V41.863L25.8137 33.6772L32.43 29.8572L28.0279 25.4922L11.6367 41.7448Z" fill="url(#paint2_linear_1464_36561)"/>
</g>
<mask id="mask3_1464_36561" style="mask-type:luminance" maskUnits="userSpaceOnUse" x="11" y="9" width="29" height="33">
<path d="M32.4306 21.128L25.814 17.3081C25.814 17.3081 13.76 10.3478 13.0514 9.93869C12.3428 9.52959 11.6367 9.77746 11.6367 10.6324V40.6558C11.6367 41.2968 12.1413 41.573 12.757 41.2179C13.3724 40.8621 25.814 33.6786 25.814 33.6786L32.4303 29.859C32.4303 29.859 38.0442 26.618 38.7903 26.1873C39.5366 25.7561 39.4648 25.1651 38.8351 24.8261C38.2057 24.4866 32.4306 21.128 32.4306 21.128Z" fill="white"/>
</mask>
<g mask="url(#mask3_1464_36561)">
<path d="M32.4297 21.1289L28.0273 25.4945L32.4294 29.8596L39.991 25.4942L32.4297 21.1289Z" fill="url(#paint3_linear_1464_36561)"/>
</g>
<path d="M114.83 31.8492C114.214 31.8492 113.652 31.7356 113.144 31.5086C112.635 31.2814 112.208 30.932 111.863 30.4609H111.759C111.828 31.0129 111.863 31.5362 111.863 32.0305V35.9205H110.432V22.2234H111.596L111.794 23.5173H111.863C112.231 22.9995 112.66 22.6262 113.148 22.3961C113.637 22.166 114.198 22.051 114.83 22.051C116.083 22.051 117.051 22.4796 117.732 23.3363C118.413 24.1929 118.754 25.395 118.754 26.9413C118.754 28.494 118.408 29.6998 117.715 30.5602C117.023 31.4197 116.061 31.8492 114.83 31.8492ZM114.623 23.2671C113.657 23.2671 112.958 23.5348 112.527 24.0693C112.096 24.604 111.874 25.4553 111.863 26.6226V26.9414C111.863 28.2699 112.084 29.2201 112.527 29.7925C112.97 30.3649 113.68 30.6503 114.657 30.6503C115.474 30.6503 116.114 30.3201 116.577 29.6588C117.04 28.9978 117.271 28.0863 117.271 26.9242C117.271 25.7459 117.04 24.841 116.577 24.2116C116.114 23.5816 115.462 23.2671 114.623 23.2671ZM122.07 31.6765H120.638V18.2557H122.07V31.6765ZM130.301 31.6765L130.016 30.331H129.948C129.476 30.9237 129.006 31.325 128.537 31.5342C128.069 31.7445 127.483 31.8492 126.782 31.8492C125.845 31.8492 125.111 31.6076 124.578 31.1248C124.046 30.642 123.781 29.9551 123.781 29.0635C123.781 27.1548 125.307 26.1541 128.361 26.0617L129.965 26.0098V25.4234C129.965 24.6815 129.806 24.1335 129.486 23.7804C129.168 23.4263 128.656 23.2496 127.955 23.2496C127.167 23.2496 126.276 23.4912 125.282 23.974L124.842 22.8787C125.308 22.6256 125.818 22.4274 126.373 22.2837C126.928 22.1399 127.484 22.0679 128.042 22.0679C129.169 22.0679 130.004 22.3178 130.548 22.8182C131.091 23.3185 131.362 24.1206 131.362 25.2249V31.6762H130.301L130.301 31.6765ZM127.067 30.6678C127.958 30.6678 128.658 30.4233 129.167 29.9348C129.675 29.4462 129.93 28.7617 129.93 27.8815V27.0277L128.498 27.0877C127.36 27.1287 126.539 27.3048 126.036 27.619C125.533 27.9323 125.281 28.4197 125.281 29.081C125.281 29.5982 125.437 29.9924 125.751 30.2621C126.065 30.5326 126.503 30.6678 127.067 30.6678ZM132.193 22.2234H133.728L135.798 27.6144C136.253 28.8451 136.535 29.7334 136.644 30.2799H136.713C136.788 29.9861 136.945 29.4849 137.183 28.774C137.422 28.0637 138.203 25.8807 139.525 22.2234H141.061L136.998 32.9879C136.595 34.0516 136.125 34.8064 135.587 35.2528C135.05 35.6981 134.39 35.9205 133.608 35.9205C133.171 35.9205 132.74 35.8717 132.314 35.7741V34.6271C132.63 34.696 132.984 34.7307 133.375 34.7307C134.359 34.7307 135.059 34.1787 135.48 33.0745L136.006 31.7292L132.193 22.2234ZM88.3071 23.1019C88.7615 23.478 89.7106 24.2681 89.7106 25.7717C89.7106 27.234 88.88 27.9274 88.0495 28.5789C87.7924 28.8357 87.4958 29.1134 87.4958 29.5489C87.4958 29.9829 87.7921 30.2205 88.0105 30.3987L88.7225 30.9512C89.5924 31.6831 90.3825 32.3558 90.3825 33.7205C90.3825 35.579 88.5831 37.4567 85.1829 37.4567C82.3154 37.4567 80.932 36.0928 80.932 34.6288C80.932 33.9174 81.2863 32.9095 82.4546 32.2167C83.6796 31.4653 85.3415 31.3675 86.2309 31.3067C85.9532 30.9512 85.6376 30.5754 85.6376 29.9634C85.6376 29.6278 85.7369 29.4298 85.8353 29.1914C85.617 29.2115 85.3998 29.2313 85.2019 29.2313C83.1067 29.2313 81.9204 27.6692 81.9204 26.1277C81.9204 25.218 82.3361 24.209 83.1853 23.4783C84.3128 22.5491 85.6571 22.3904 86.7258 22.3904H90.7979L89.5324 23.1022H88.3071L88.3071 23.1019ZM86.9028 31.8813C86.7447 31.8607 86.6454 31.8607 86.4486 31.8607C86.2708 31.8607 85.2015 31.9011 84.3721 32.1785C83.9372 32.3355 82.6714 32.81 82.6714 34.2146C82.6714 35.6178 84.0364 36.6277 86.1523 36.6277C88.0492 36.6277 89.0587 35.7162 89.0587 34.4914C89.0588 33.481 88.4061 32.9494 86.9028 31.8813ZM87.4765 28.1239C87.9307 27.6686 87.9697 27.0366 87.9697 26.6803C87.9697 25.257 87.1199 23.0425 85.4792 23.0425C84.9645 23.0425 84.4114 23.2993 84.095 23.6952C83.7593 24.1103 83.6595 24.6436 83.6595 25.1583C83.6595 26.4829 84.4306 28.6779 86.1319 28.6779C86.6262 28.6779 87.159 28.4406 87.4765 28.1239ZM75.8592 31.5649C72.7209 31.5649 71.0429 29.1168 71.0429 26.9055C71.0429 24.3191 73.1547 22.1092 76.1564 22.1092C79.0569 22.1092 80.8732 24.3785 80.8732 26.7677C80.8735 29.0962 79.0778 31.5649 75.8592 31.5649ZM78.3265 29.966C78.801 29.3337 78.9195 28.5445 78.9195 27.7739C78.9195 26.0362 78.0904 22.7203 75.6423 22.7203C74.9911 22.7203 74.3399 22.9774 73.8662 23.3928C73.0962 24.0828 72.9573 24.9518 72.9573 25.8015C72.9573 27.7544 73.9247 30.9713 76.3139 30.9713C77.0837 30.9713 77.8734 30.5969 78.3265 29.966ZM65.1596 31.5649C62.0207 31.5649 60.3424 29.1168 60.3424 26.9055C60.3424 24.3191 62.4551 22.1092 65.456 22.1092C68.3573 22.1092 70.1733 24.3785 70.1733 26.7677C70.1736 29.0962 68.3777 31.5649 65.1596 31.5649ZM67.6274 29.966C68.1011 29.3337 68.2199 28.5445 68.2199 27.7739C68.2199 26.0362 67.3902 22.7203 64.9421 22.7203C64.2912 22.7203 63.6394 22.9774 63.166 23.3928C62.396 24.0828 62.258 24.9518 62.258 25.8015C62.258 27.7544 63.2248 30.9713 65.6143 30.9713C66.3843 30.9713 67.1736 30.5969 67.6274 29.966ZM58.8345 31.2553L55.996 31.9103C54.8444 32.0893 53.8128 32.2468 52.7217 32.2468C47.2433 32.2468 45.1602 28.2177 45.1602 25.0619C45.1602 21.2122 48.1169 17.6406 53.1785 17.6406C54.2506 17.6406 55.2817 17.799 56.2144 18.0572C57.7027 18.4741 58.3973 18.9896 58.8342 19.2877L57.1863 20.8555L56.4921 21.0136L56.9881 20.2195C56.3136 19.5651 55.082 18.3547 52.741 18.3547C49.605 18.3547 47.2427 20.7373 47.2427 24.2101C47.2427 27.9403 49.9424 31.4533 54.2681 31.4533C55.5396 31.4533 56.1931 31.1957 56.789 30.957V27.7624L53.7927 27.9211L55.3798 27.0667H59.5876L59.0721 27.5628C58.9321 27.6824 58.9129 27.7226 58.8733 27.8798C58.8526 28.0588 58.834 28.6349 58.834 28.8331V31.2553H58.8345V31.2553Z" fill="#F9F9F9"/>
<path d="M94.5808 30.6842C93.9255 30.6246 93.7884 30.5061 93.7884 29.7312V18.4983C93.7924 18.4555 93.795 18.4116 93.799 18.3703C93.879 17.676 94.0773 17.5569 94.6932 17.1992H91.8542L90.3652 17.9139H91.8826V17.9228L91.8815 17.9156V30.1684C91.8815 30.5646 91.8031 30.6249 91.3461 31.2196H94.8594L95.5938 30.7841C95.2567 30.7431 94.9187 30.7238 94.5808 30.6842ZM102.657 30.8667C102.441 30.9852 102.224 31.1238 102.008 31.2216C101.356 31.5171 100.686 31.5963 100.094 31.5963C99.4648 31.5963 98.4785 31.5555 97.4723 30.8271C96.0741 29.8408 95.463 28.1459 95.463 26.6681C95.463 23.6135 97.9463 22.1157 99.9763 22.1157C100.686 22.1157 101.416 22.2927 102.008 22.668C102.992 23.3172 103.248 24.1647 103.385 24.6182L98.7548 26.4914L97.2368 26.6095C97.7288 29.1126 99.4238 30.5701 101.297 30.5701C102.302 30.5701 103.031 30.216 103.701 29.8815L102.657 30.8667ZM100.805 24.9923C101.178 24.8549 101.375 24.7361 101.375 24.4604C101.375 23.6726 100.489 22.7655 99.4238 22.7655C98.6345 22.7655 97.1573 23.3768 97.1573 25.505C97.1573 25.8401 97.1969 26.1947 97.2173 26.5507L100.805 24.9923ZM104.559 22.2505V23.551H104.401V22.2505H103.971V22.1156H104.989V22.2505H104.559ZM106.332 23.551V22.2385H106.325L105.924 23.551H105.801L105.397 22.2385H105.392V23.551H105.248V22.1157H105.494L105.86 23.2759H105.865L106.225 22.1157H106.474V23.551H106.332Z" fill="#F9F9F9"/>
<path d="M49.1014 13.7767H48.1151C48.1151 13.641 48.0215 13.2569 47.8345 12.624H46.4106C46.2176 13.2466 46.1209 13.6307 46.1209 13.7767H45.1934C45.1934 13.6967 45.4332 13.0391 45.9129 11.8044C46.3925 10.5696 46.6324 9.88934 46.6324 9.76428H47.7975C47.7975 9.88133 48.0146 10.5515 48.4493 11.7751C48.8839 12.9987 49.1014 13.6657 49.1014 13.7767ZM47.6775 12.0353C47.3261 10.9752 47.1505 10.402 47.1505 10.3157H47.1012C47.1012 10.3957 46.9193 10.9689 46.5558 12.0353H47.6775ZM53.0754 13.7767H52.3143C52.3143 13.6924 52.0317 13.2477 51.4668 12.4424C50.8752 11.5938 50.5381 11.0137 50.4561 10.7013H50.4068C50.4581 11.1511 50.484 11.5579 50.484 11.9217C50.484 12.4292 50.4983 13.0478 50.527 13.777H49.7687C49.7994 13.1401 49.8149 12.4407 49.8149 11.6784C49.8149 10.9285 49.7994 10.2905 49.7687 9.76459H50.6839C50.6839 9.87361 50.9375 10.3082 51.445 11.0682C51.9853 11.8755 52.2957 12.4232 52.3757 12.711H52.4219C52.3726 12.2528 52.3479 11.8419 52.3479 11.4782C52.3479 10.9216 52.3335 10.3501 52.3049 9.76459H53.0754C53.0464 10.2741 53.0324 10.9122 53.0324 11.6784C53.0321 12.4504 53.0464 13.1499 53.0754 13.7767ZM57.542 11.6317C57.542 12.2152 57.355 12.7247 56.9811 13.1602C56.607 13.596 56.0831 13.8135 55.4093 13.8135C55.1052 13.8135 54.686 13.8011 54.1518 13.7764C54.1785 13.1559 54.192 12.4562 54.192 11.6779C54.192 10.9302 54.1785 10.2922 54.1518 9.76399H54.6912C54.7795 9.76399 54.9109 9.76083 55.0857 9.75481C55.2601 9.74879 55.3743 9.74563 55.4276 9.74563C56.1693 9.74563 56.7069 9.93067 57.0411 10.3005C57.375 10.6703 57.542 11.1138 57.542 11.6317ZM56.7008 11.7642C56.7008 11.3697 56.5858 11.0375 56.3557 10.7669C56.1256 10.497 55.7742 10.3619 55.3016 10.3619C55.2133 10.3619 55.0922 10.3711 54.9379 10.3897C54.9582 10.8008 54.9686 11.23 54.9686 11.6778C54.9686 12.169 54.9789 12.6559 54.9992 13.1387C55.1311 13.1653 55.2652 13.1787 55.3997 13.1789C55.8416 13.1789 56.1686 13.0415 56.3812 12.7672C56.5938 12.4929 56.7008 12.1586 56.7008 11.7642ZM61.6609 13.7767H60.7486C60.5102 13.0495 60.3275 12.6005 60.2001 12.4301C60.0727 12.2594 59.8673 12.1742 59.5838 12.1742C59.4645 12.1742 59.3506 12.1753 59.2419 12.1773C59.2419 12.7055 59.251 13.2385 59.2697 13.7767H58.413C58.4397 13.1562 58.4532 12.4565 58.4532 11.6781C58.4532 10.9305 58.4397 10.2924 58.413 9.76428H58.946C59.0077 9.76428 59.1366 9.76112 59.3328 9.7551C59.529 9.74907 59.7104 9.74589 59.8767 9.74589C60.8198 9.74589 61.2914 10.0684 61.2914 10.7136C61.2914 11.2251 61.0223 11.5814 60.4841 11.7831V11.8293C60.6915 11.8867 60.8734 12.0488 61.0295 12.3145C61.1852 12.5804 61.3958 13.0678 61.6609 13.7767ZM60.5053 10.9414C60.5053 10.5325 60.2422 10.328 59.7164 10.328C59.5233 10.328 59.3526 10.3424 59.2048 10.3711C59.2275 10.6895 59.2387 11.1046 59.2387 11.6162C59.3517 11.6205 59.4473 11.6222 59.5253 11.6222C60.1785 11.6225 60.5053 11.3955 60.5053 10.9414ZM66.0784 11.6965C66.0784 12.3271 65.8853 12.8501 65.4989 13.2652C65.1125 13.6801 64.6348 13.8877 64.0659 13.8877C63.5234 13.8877 63.0692 13.6972 62.7037 13.316C62.338 12.935 62.1552 12.4504 62.1552 11.8631C62.1552 11.2326 62.3483 10.7096 62.7347 10.2944C63.1209 9.87958 63.5986 9.67188 64.1677 9.67188C64.7102 9.67188 65.1641 9.8618 65.5299 10.2419C65.8957 10.6221 66.0784 11.1066 66.0784 11.6965ZM65.2281 11.7857C65.2281 11.3562 65.1182 11.008 64.8985 10.7409C64.6784 10.4738 64.4073 10.3404 64.0848 10.3404C63.7847 10.3404 63.53 10.4749 63.3206 10.744C63.1111 11.0131 63.0058 11.3531 63.0058 11.7642C63.0058 12.1914 63.1163 12.5391 63.3372 12.8074C63.5581 13.0756 63.8286 13.2096 64.1494 13.2096C64.4492 13.2096 64.7042 13.0744 64.9137 12.8042C65.1231 12.5342 65.2281 12.1945 65.2281 11.7857ZM67.821 13.7767H66.9489C66.9755 13.1398 66.989 12.4404 66.989 11.6781C66.989 10.9282 66.9756 10.2901 66.9489 9.76428H67.821C67.7943 10.2821 67.7809 10.9199 67.7809 11.6781C67.7809 12.4524 67.7943 13.1522 67.821 13.7767ZM72.2879 11.6317C72.2879 12.2152 72.1009 12.7247 71.727 13.1602C71.353 13.596 70.8291 13.8135 70.1552 13.8135C69.8511 13.8135 69.4319 13.8011 68.8977 13.7764C68.9244 13.1559 68.9379 12.4562 68.9379 11.6779C68.9379 10.9302 68.9244 10.2922 68.8977 9.76399H69.4371C69.5254 9.76399 69.6568 9.76083 69.8316 9.75481C70.006 9.74879 70.1202 9.74563 70.1735 9.74563C70.9152 9.74563 71.4528 9.93067 71.787 10.3005C72.1209 10.6703 72.2879 11.1138 72.2879 11.6317ZM71.4467 11.7642C71.4467 11.3697 71.3317 11.0375 71.1016 10.7669C70.8715 10.497 70.5201 10.3619 70.0476 10.3619C69.9592 10.3619 69.8381 10.3711 69.6838 10.3897C69.7041 10.8008 69.7145 11.23 69.7145 11.6778C69.7145 12.169 69.7248 12.6559 69.7451 13.1387C69.877 13.1653 70.0111 13.1787 70.1456 13.1789C70.5874 13.1789 70.9145 13.0415 71.1271 12.7672C71.3397 12.4929 71.4467 12.1586 71.4467 11.7642ZM78.2139 13.7767H77.2276C77.2276 13.641 77.1341 13.2569 76.9467 12.624H75.5229C75.3298 13.2466 75.2331 13.6307 75.2331 13.7767H74.3059C74.3059 13.6967 74.5457 13.0391 75.0254 11.8044C75.5051 10.5696 75.7449 9.88934 75.7449 9.76428H76.91C76.91 9.88133 77.1275 10.5515 77.5618 11.7751C77.9962 12.9987 78.2139 13.6657 78.2139 13.7767ZM76.7901 12.0353C76.4386 10.9752 76.2628 10.402 76.2628 10.3157H76.2134C76.2134 10.3957 76.0318 10.9689 75.6683 12.0353H76.7901ZM81.8087 10.8149C81.8087 11.306 81.6262 11.6687 81.2615 11.9028C80.8969 12.1369 80.4496 12.2542 79.9194 12.2542C79.8228 12.2542 79.7542 12.2522 79.7129 12.2482C79.7129 12.6346 79.7241 13.1439 79.7468 13.7767H78.8806C78.9073 13.1832 78.9208 12.4834 78.9208 11.6781C78.9208 10.9385 78.9073 10.3005 78.8806 9.76428H79.4168C79.4928 9.76428 79.6386 9.76112 79.8543 9.7551C80.0701 9.74907 80.2569 9.74589 80.4152 9.74589C80.8054 9.74589 81.1353 9.83426 81.4044 10.011C81.6735 10.1877 81.8087 10.4554 81.8087 10.8149ZM81.0137 10.9844C81.0137 10.5449 80.7219 10.3249 80.1384 10.3249C79.9924 10.3249 79.8383 10.3403 79.6762 10.3711C79.6989 10.7595 79.7101 11.199 79.7101 11.6902C79.7614 11.6945 79.8211 11.6962 79.8888 11.6962C80.6387 11.6965 81.0137 11.4592 81.0137 10.9844ZM85.505 10.8149C85.505 11.306 85.3225 11.6687 84.9582 11.9028C84.5935 12.1369 84.146 12.2542 83.6158 12.2542C83.5191 12.2542 83.4506 12.2522 83.4092 12.2482C83.4092 12.6346 83.4204 13.1439 83.4431 13.7767H82.577C82.6036 13.1832 82.6172 12.4834 82.6172 11.6781C82.6172 10.9385 82.6037 10.3005 82.577 9.76428H83.1132C83.1892 9.76428 83.3349 9.76112 83.5507 9.7551C83.7664 9.74907 83.9532 9.74589 84.1115 9.74589C84.5017 9.74589 84.8316 9.83426 85.1007 10.011C85.3698 10.1877 85.505 10.4554 85.505 10.8149ZM84.71 10.9844C84.71 10.5449 84.4182 10.3249 83.8347 10.3249C83.6887 10.3249 83.5346 10.3403 83.3725 10.3711C83.3952 10.7595 83.4064 11.199 83.4064 11.6902C83.4577 11.6945 83.5174 11.6962 83.5851 11.6962C84.335 11.6965 84.71 11.4592 84.71 10.9844ZM91.5483 11.6965C91.5483 12.3271 91.3553 12.8501 90.9688 13.2652C90.5824 13.6803 90.1047 13.8877 89.5358 13.8877C88.9933 13.8877 88.5391 13.6972 88.1737 13.316C87.8081 12.935 87.6251 12.4504 87.6251 11.8631C87.6251 11.2326 87.8182 10.7096 88.2046 10.2944C88.5911 9.8793 89.0688 9.67188 89.6376 9.67188C90.1801 9.67188 90.6343 9.8618 90.9998 10.2419C91.3653 10.6221 91.5483 11.1066 91.5483 11.6965ZM90.6977 11.7857C90.6977 11.3562 90.5878 11.008 90.3681 10.7409C90.1483 10.4738 89.8769 10.3404 89.5545 10.3404C89.2543 10.3404 88.9996 10.4749 88.7902 10.744C88.5807 11.0131 88.4757 11.3531 88.4757 11.7642C88.4757 12.1914 88.5862 12.5391 88.8071 12.8074C89.028 13.0756 89.2985 13.2096 89.619 13.2096C89.9191 13.2096 90.1738 13.0744 90.3833 12.8042C90.593 12.5342 90.6977 12.1945 90.6977 11.7857ZM95.7255 13.7767H94.9643C94.9643 13.6924 94.682 13.2477 94.1169 12.4424C93.5253 11.5938 93.1882 11.0137 93.1061 10.7013H93.0568C93.1082 11.1511 93.134 11.5579 93.134 11.9217C93.134 12.4292 93.1483 13.0478 93.1771 13.777H92.4188C92.4495 13.1401 92.465 12.4407 92.465 11.6784C92.465 10.9285 92.4495 10.2905 92.4188 9.76459H93.334C93.334 9.87361 93.5879 10.3082 94.0951 11.0682C94.6356 11.8755 94.9457 12.4232 95.0258 12.711H95.072C95.0226 12.2528 94.998 11.8419 94.998 11.4782C94.998 10.9216 94.9836 10.3501 94.9549 9.76459H95.7255C95.6965 10.2741 95.6824 10.9122 95.6824 11.6784C95.6824 12.4504 95.6968 13.1499 95.7255 13.7767Z" fill="#F9F9FA"/>
<defs>
<linearGradient id="paint0_linear_1464_36561" x1="19.8323" y1="9.24224" x2="19.8323" y2="41.7478" gradientUnits="userSpaceOnUse">
<stop stop-color="#257CB0"/>
<stop offset="0.286" stop-color="#4A93B5"/>
<stop offset="0.767" stop-color="#78BCBB"/>
<stop offset="1" stop-color="#89CFBD"/>
</linearGradient>
<linearGradient id="paint1_linear_1464_36561" x1="11.637" y1="17.3064" x2="32.4305" y2="17.3064" gradientUnits="userSpaceOnUse">
<stop stop-color="#52C1AD"/>
<stop offset="1" stop-color="#DEE89A"/>
</linearGradient>
<linearGradient id="paint2_linear_1464_36561" x1="22.0333" y1="25.4922" x2="22.0333" y2="41.8631" gradientUnits="userSpaceOnUse">
<stop stop-color="#EC413D"/>
<stop offset="0.167" stop-color="#DA4452"/>
<stop offset="0.575" stop-color="#B0487A"/>
<stop offset="0.862" stop-color="#954A92"/>
<stop offset="1" stop-color="#8A4A9D"/>
</linearGradient>
<linearGradient id="paint3_linear_1464_36561" x1="34.0093" y1="21.129" x2="34.0093" y2="29.8593" gradientUnits="userSpaceOnUse">
<stop stop-color="#F58879"/>
<stop offset="0.119" stop-color="#F69079"/>
<stop offset="0.713" stop-color="#FCB877"/>
<stop offset="1" stop-color="#FEC874"/>
</linearGradient>
</defs>
</svg>
