<svg width="232" height="60" viewBox="0 0 232 60" fill="none" xmlns="http://www.w3.org/2000/svg">
<path d="M209.074 26.7095C209.933 23.7385 212.082 22.1074 215.173 22.1074C218.374 22.1074 220.591 23.7199 221.523 26.7095H209.074ZM179.31 29.2696L188.356 16.4393V42.67L179.31 29.2696ZM215.174 14.0358C207.011 14.0358 200.722 18.8551 198.961 25.8754V1.90735e-05L188.356 4.25789V15.0142H177.449L169.661 26.7329V4.25542L159.054 8.51329V14.8723H156.735C153.07 14.8723 150.425 15.8939 148.253 18.3344L146.599 15.0142H139.492V44.9254H150.099V29.715C150.099 25.9001 151.672 24.2998 155.427 24.2998H159.054V44.9254H169.661V32.2764L177.374 44.9254H188.356H189.876H198.961V33.9976C200.73 41.0241 207.052 45.9062 215.174 45.9062C222.9 45.9062 229.129 41.641 231.296 34.8143H220.741C219.721 36.5651 217.651 37.6188 215.174 37.6188C211.825 37.6188 209.582 35.8446 208.888 32.4146H231.752C231.89 31.4892 231.971 30.5885 231.971 29.6879C231.971 20.9143 225.099 14.0358 215.174 14.0358Z" fill="#14233B"/>
<path d="M120.122 36.9365C116.275 36.9365 113.157 33.8594 113.157 30.0629C113.157 26.2665 116.275 23.1894 120.122 23.1894C123.97 23.1894 127.089 26.2665 127.089 30.0629C127.089 33.8594 123.97 36.9365 120.122 36.9365ZM86.4037 36.9365C82.5559 36.9365 79.4359 33.8594 79.4359 30.0629C79.4359 26.2665 82.5559 23.1894 86.4037 23.1894C90.2515 23.1894 93.3703 26.2665 93.3703 30.0629C93.3703 33.8594 90.2515 36.9365 86.4037 36.9365ZM59.1676 26.1579C56.2427 25.6508 53.8867 25.2548 53.8867 23.5521C53.8867 22.1666 54.8021 21.3486 56.5028 21.3486C58.4236 21.3486 59.7466 22.2369 59.7466 24.1468H69.3443L69.3455 30.913C67.2684 27.4892 62.7791 26.781 59.1676 26.1579ZM128.303 17.2967C125.761 15.2585 122.521 14.0814 118.896 14.0814C110.925 14.0814 104.895 18.8155 103.228 25.8853C101.557 18.7822 95.5299 14.0345 87.5629 14.0345C83.9039 14.0345 80.6439 15.2634 78.1116 17.3905L76.7835 15.0142H69.3443V21.7705C68.0988 17.0524 63.3968 14.0345 56.6341 14.0345C48.7446 14.0345 43.7113 17.905 43.7113 23.9001C43.7113 31.1536 50.0414 32.554 54.8159 33.3054C57.7746 33.7804 60.1055 34.2727 60.1055 35.9975C60.1055 37.5435 58.6349 38.3122 57.083 38.3122C55.0722 38.3122 53.5041 37.3054 53.5041 35.1191H43.2949C43.3925 41.599 48.4933 45.905 56.8854 45.905C62.8529 45.905 67.3434 43.7224 69.3455 40.1209V60L79.9961 55.7249H80.0561V43.9494C82.2295 45.2252 84.778 45.9371 87.5629 45.9371C95.5387 45.9371 101.571 41.1548 103.234 34.0321C104.909 41.1252 110.934 45.905 118.896 45.905C122.471 45.905 125.665 44.7613 128.187 42.7773L129.094 44.8933H137.294V14.9833H129.389L128.303 17.2967Z" fill="#14233B"/>
<path d="M16.3502 13.9052C16.4728 22.6196 23.6094 29.6609 32.4418 29.7818C23.6094 29.9028 16.4728 36.9441 16.3502 45.6572C16.2277 36.9441 9.09103 29.9028 0.258688 29.7818C9.09103 29.6609 16.2277 22.6196 16.3502 13.9052ZM3.82889 45.8867H28.8716C30.9712 45.8867 32.6731 44.2075 32.6731 42.1359V17.4265C32.6731 15.3562 30.9712 13.677 28.8716 13.677H3.82889C1.72929 13.677 0.0273438 15.3562 0.0273438 17.4265V42.1359C0.0273438 44.2075 1.72929 45.8867 3.82889 45.8867Z" fill="#14233B"/>
</svg>
